<?xml version="1.0" encoding="UTF-8" standalone="no"?>
<svg
   xmlns:dc="http://purl.org/dc/elements/1.1/"
   xmlns:cc="http://creativecommons.org/ns#"
   xmlns:rdf="http://www.w3.org/1999/02/22-rdf-syntax-ns#"
   xmlns:svg="http://www.w3.org/2000/svg"
   xmlns="http://www.w3.org/2000/svg"
   xmlns:sodipodi="http://sodipodi.sourceforge.net/DTD/sodipodi-0.dtd"
   xmlns:inkscape="http://www.inkscape.org/namespaces/inkscape"
   width="1024"
   height="1024"
   version="1.1"
   viewBox="0 0 960.00128 960.00356"
   id="svg64"
   sodipodi:docname="g+.svg"
   inkscape:version="0.92.1 r15371">
  <metadata
     id="metadata70">
    <rdf:RDF>
      <cc:Work
         rdf:about="">
        <dc:format>image/svg+xml</dc:format>
        <dc:type
           rdf:resource="http://purl.org/dc/dcmitype/StillImage" />
        <dc:title></dc:title>
      </cc:Work>
    </rdf:RDF>
  </metadata>
  <defs
     id="defs68" />
  <sodipodi:namedview
     pagecolor="#ff7777"
     bordercolor="#666666"
     borderopacity="1"
     objecttolerance="10"
     gridtolerance="10"
     guidetolerance="10"
     inkscape:pageopacity="0"
     inkscape:pageshadow="2"
     inkscape:window-width="1920"
     inkscape:window-height="1027"
     id="namedview66"
     showgrid="false"
     units="px"
     inkscape:zoom="0.50012511"
     inkscape:cx="62.368427"
     inkscape:cy="116.03206"
     inkscape:window-x="1672"
     inkscape:window-y="-8"
     inkscape:window-maximized="1"
     inkscape:current-layer="svg64" />
  <g
     style="fill:#ffffff"
     transform="matrix(10.959152,0,0,10.884388,-18439.112,-27293.415)"
     id="g32">
    <g
       transform="matrix(2.7201,0,0,-2.7388,1747.9,2565.8)"
       id="g26">
      <path
         d="m 0,0 h 1.288 c 0.346,0 0.625,0.279 0.625,0.625 v 4.523 h 4.524 c 0.344,0 0.625,0.282 0.625,0.627 v 1.287 c 0,0.346 -0.281,0.627 -0.625,0.627 H 1.913 v 4.524 c 0,0.344 -0.279,0.625 -0.625,0.625 H 0 c -0.346,0 -0.627,-0.281 -0.627,-0.625 V 7.689 H -5.15 c -0.345,0 -0.625,-0.281 -0.625,-0.627 V 5.775 c 0,-0.345 0.28,-0.627 0.625,-0.627 h 4.523 V 0.625 C -0.627,0.279 -0.346,0 0,0"
         id="path24"
         inkscape:connector-curvature="0"
         style="fill:#ffffff" />
    </g>
    <g
       transform="matrix(2.7201,0,0,-2.7388,1710.6,2562.1)"
       id="g30">
      <path
         d="m 0,0 0.071,-0.002 c 0.59,-0.006 1.165,-0.094 1.708,-0.26 0.185,-0.127 0.366,-0.25 0.538,-0.367 1.255,-0.855 2.083,-1.42 2.315,-2.326 0.054,-0.227 0.081,-0.455 0.081,-0.676 0,-2.33 -1.738,-3.512 -5.166,-3.512 -2.6,0 -4.634,1.594 -4.634,3.629 C -5.087,-1.643 -2.709,0 0,0 m -3.381,10.918 c -0.173,1.316 0.104,2.498 0.76,3.246 0.423,0.484 0.977,0.738 1.6,0.738 L -0.95,14.9 C 0.809,14.85 2.49,12.891 2.801,10.533 2.975,9.213 2.682,7.973 2.018,7.215 1.594,6.73 1.047,6.477 0.398,6.477 H 0.369 c -1.723,0.05 -3.441,2.087 -3.75,4.441 M -4.09,-9.229 c 1.145,-0.291 2.375,-0.439 3.653,-0.439 1.147,0 2.242,0.15 3.253,0.443 3.155,0.914 5.194,3.237 5.194,5.918 0,2.573 -0.826,4.112 -3.046,5.682 -0.951,0.674 -1.817,1.66 -1.831,1.965 0,0.553 0.049,0.816 1.289,1.783 1.602,1.254 2.486,2.904 2.486,4.648 0,1.581 -0.483,2.985 -1.306,3.971 h 0.637 c 0.133,0 0.262,0.041 0.368,0.117 l 1.78,1.289 c 0.22,0.159 0.313,0.442 0.228,0.7 -0.084,0.257 -0.324,0.433 -0.595,0.433 H 0.062 c -0.871,0 -1.755,-0.152 -2.624,-0.451 -2.9,-1 -4.927,-3.471 -4.927,-6.01 0,-3.591 2.784,-6.316 6.506,-6.402 -0.073,-0.285 -0.109,-0.566 -0.109,-0.842 0,-0.553 0.141,-1.078 0.429,-1.584 C -0.697,1.99 -0.729,1.99 -0.766,1.99 c -3.547,0 -6.75,-1.74 -7.965,-4.332 -0.318,-0.672 -0.478,-1.353 -0.478,-2.025 0,-0.654 0.168,-1.283 0.496,-1.875 0.766,-1.367 2.406,-2.428 4.623,-2.987"
         id="path28"
         inkscape:connector-curvature="0"
         style="fill:#ffffff" />
    </g>
  </g>
</svg>
