<?xml version="1.0" encoding="UTF-8" standalone="no"?>
<!-- Created with Inkscape (http://www.inkscape.org/) -->

<svg
   xmlns:dc="http://purl.org/dc/elements/1.1/"
   xmlns:cc="http://creativecommons.org/ns#"
   xmlns:rdf="http://www.w3.org/1999/02/22-rdf-syntax-ns#"
   xmlns:svg="http://www.w3.org/2000/svg"
   xmlns="http://www.w3.org/2000/svg"
   xmlns:sodipodi="http://sodipodi.sourceforge.net/DTD/sodipodi-0.dtd"
   xmlns:inkscape="http://www.inkscape.org/namespaces/inkscape"
   width="1024"
   height="1024"
   viewBox="0 0 270.93333 270.93334"
   version="1.1"
   id="svg4593"
   inkscape:version="0.92.1 r15371"
   sodipodi:docname="LogoImgOnly.svg">
  <defs
     id="defs4587">
    <inkscape:path-effect
       effect="bspline"
       id="path-effect7473"
       is_visible="true"
       weight="33.333333"
       steps="2"
       helper_size="0"
       apply_no_weight="true"
       apply_with_weight="true"
       only_selected="false" />
    <inkscape:path-effect
       effect="bspline"
       id="path-effect7493"
       is_visible="true"
       weight="33.333333"
       steps="2"
       helper_size="0"
       apply_no_weight="true"
       apply_with_weight="true"
       only_selected="false" />
    <inkscape:path-effect
       effect="bspline"
       id="path-effect7497"
       is_visible="true"
       weight="33.333333"
       steps="2"
       helper_size="0"
       apply_no_weight="true"
       apply_with_weight="true"
       only_selected="false" />
    <inkscape:path-effect
       only_selected="false"
       apply_with_weight="true"
       apply_no_weight="true"
       helper_size="0"
       steps="2"
       weight="33.333333"
       is_visible="true"
       id="path-effect7501"
       effect="bspline" />
    <inkscape:path-effect
       effect="bspline"
       id="path-effect7505"
       is_visible="true"
       weight="33.333333"
       steps="2"
       helper_size="0"
       apply_no_weight="true"
       apply_with_weight="true"
       only_selected="false" />
    <inkscape:path-effect
       effect="bspline"
       id="path-effect7509"
       is_visible="true"
       weight="33.333333"
       steps="2"
       helper_size="0"
       apply_no_weight="true"
       apply_with_weight="true"
       only_selected="false" />
    <inkscape:path-effect
       effect="bspline"
       id="path-effect7513"
       is_visible="true"
       weight="33.333333"
       steps="2"
       helper_size="0"
       apply_no_weight="true"
       apply_with_weight="true"
       only_selected="false" />
    <inkscape:path-effect
       effect="bspline"
       id="path-effect7517"
       is_visible="true"
       weight="33.333333"
       steps="2"
       helper_size="0"
       apply_no_weight="true"
       apply_with_weight="true"
       only_selected="false" />
  </defs>
  <sodipodi:namedview
     id="base"
     pagecolor="#ffffff"
     bordercolor="#666666"
     borderopacity="1.0"
     inkscape:pageopacity="0.0"
     inkscape:pageshadow="2"
     inkscape:zoom="0.35"
     inkscape:cx="-441.42858"
     inkscape:cy="560"
     inkscape:document-units="mm"
     inkscape:current-layer="layer1"
     showgrid="false"
     inkscape:window-width="1920"
     inkscape:window-height="1027"
     inkscape:window-x="3592"
     inkscape:window-y="-8"
     inkscape:window-maximized="1"
     units="px" />
  <metadata
     id="metadata4590">
    <rdf:RDF>
      <cc:Work
         rdf:about="">
        <dc:format>image/svg+xml</dc:format>
        <dc:type
           rdf:resource="http://purl.org/dc/dcmitype/StillImage" />
        <dc:title />
      </cc:Work>
    </rdf:RDF>
  </metadata>
  <g
     inkscape:label="Vrstva 1"
     inkscape:groupmode="layer"
     id="layer1"
     transform="translate(0,-26.06665)">
    <path
       style="fill:#ffca37;fill-opacity:1;stroke:none;stroke-width:1.08449411px;stroke-linecap:butt;stroke-linejoin:miter;stroke-opacity:1"
       d="m 124.61183,39.312958 c -0.9197,-0.02372 -1.9591,0.10386 -3.09332,0.387194 -2.26848,0.566874 -4.91554,1.75907 -7.87099,2.955656 -2.95544,1.196586 -6.21972,2.397294 -9.8597,3.410617 -3.63998,1.013324 -7.655674,1.838912 -11.234268,2.016678 -3.578609,0.177748 -6.817475,-0.307268 -10.007075,-0.785166 1.957589,1.760944 3.989357,3.58849 5.017525,4.986321 1.028141,1.397832 1.21484,2.59217 0.638883,4.645376 -0.57597,2.053206 -1.920954,5.052571 -3.258968,8.035535 4.987919,-2.435175 9.976456,-4.870163 14.519049,-6.915875 4.542604,-2.045712 8.647804,-3.705336 12.748674,-5.256293 4.10088,-1.550936 8.20118,-2.995244 9.09928,-1.98656 0.89811,1.008682 -1.40537,4.470688 0.007,5.047617 1.41078,0.576928 6.53577,-1.731847 11.41067,-3.322411 4.87488,-1.590564 9.49872,-2.462794 14.49861,-2.501778 4.99989,-0.03892 10.45395,0.766976 15.86888,1.567108 -2.22106,-1.700646 -4.44211,-3.401752 -7.20628,-4.359274 -2.76417,-0.957482 -6.07314,-1.171007 -9.38106,-1.385323 2.18235,-0.670173 4.36616,-1.341532 7.23101,-1.753159 2.86485,-0.411649 6.41115,-0.565085 9.95866,-0.718481 -4.35911,-0.590498 -8.71753,-1.180456 -13.12189,-0.995986 -4.40435,0.184408 -8.88435,1.151317 -12.80138,2.431865 -3.91702,1.280527 -7.37922,2.910076 -8.93471,3.341788 -1.55549,0.431692 -0.0212,-3.101143 0.1205,-4.716371 0.14174,-1.615208 -0.66539,-2.970934 -1.97366,-3.610676 -0.65412,-0.319862 -1.45405,-0.494758 -2.37376,-0.518402 z m -47.017249,0.45925 c -0.387588,-0.02164 -0.774926,0.0011 -1.107837,0.07638 -0.665843,0.150481 -1.087274,0.507015 -1.30465,0.779797 -0.217355,0.272573 -0.218125,0.448301 0.360302,6.162989 0.559861,5.53101 1.667075,16.297478 2.779263,27.110671 -6.865361,0.311952 -13.60557,0.680892 -20.330331,1.057282 3.377807,1.232448 6.755523,2.464043 9.105737,4.403384 2.350215,1.939399 3.675885,4.587309 3.904293,7.919372 0.228386,3.33209 -0.639098,7.34944 -1.78005,10.772853 -1.140974,3.423424 -2.555976,6.255244 -3.971,9.085314 8.125012,-0.91292 16.250897,-1.82718 25.904987,-2.58029 9.654115,-0.75311 20.836375,-1.34532 30.353535,-1.57354 9.51716,-0.2283 17.36766,-0.0928 25.21877,0.0442 1.27809,-3.423469 2.55688,-6.847881 3.37836,-10.202802 0.82143,-3.354947 1.18706,-6.642119 0.82173,-9.334839 -0.36533,-2.692761 -1.46172,-4.791422 -2.94491,-6.297442 -1.48318,-1.506 -3.35372,-2.419398 -5.33909,-2.990062 -1.98536,-0.570642 -4.08606,-0.798488 -12.09689,-0.958334 -8.0108,-0.159848 -21.93209,-0.251634 -35.009645,0.04516 -4.214209,0.09554 -8.321137,0.241187 -12.388357,0.404406 -0.948823,-10.637286 -1.897999,-21.28595 -2.372693,-26.728897 -0.492362,-5.645234 -0.490906,-5.896556 -0.717398,-6.187736 -0.226512,-0.291014 -0.68062,-0.623634 -1.352,-0.821736 -0.33568,-0.09908 -0.724537,-0.164634 -1.112126,-0.186072 z M 44.710249,61.800857 c -0.227689,0.0042 -0.45787,0.0333 -0.649643,0.08492 -0.383528,0.101982 -0.596164,0.286955 -0.705571,0.472174 -0.109399,0.184823 -0.109453,0.360385 0.290406,4.378609 0.39919,4.011545 1.190614,11.760476 1.984415,19.557035 -4.90085,0.806439 -12.155877,2.023684 -19.921617,3.330982 1.186801,1.004243 2.374528,2.008567 3.355763,3.446122 0.981241,1.437595 1.740465,3.270649 1.833839,5.855376 0.09339,2.584715 -0.487535,5.715265 -1.719828,9.595135 -1.23229,3.87992 -3.104071,8.44433 -4.975563,13.00896 v 0.003 l 29.681292,-8.09318 c 2.966999,-4.88412 5.933407,-9.7698 7.667706,-13.26172 1.734319,-3.491904 2.237443,-5.591902 2.237173,-7.485924 -2.5e-4,-1.894008 -0.502708,-3.583107 -1.529456,-4.837907 -1.026728,-1.254842 -2.577815,-2.075736 -3.992491,-2.48669 -1.414696,-0.411116 -2.693897,-0.411562 -3.880643,-0.34311 -1.116963,0.06431 -2.38247,0.230388 -6.472747,0.893778 -0.619989,-7.548832 -1.240963,-15.097436 -1.550967,-18.995547 -0.314786,-3.958531 -0.31549,-4.209188 -0.402263,-4.45283 -0.08677,-0.243476 -0.259794,-0.481686 -0.618445,-0.592642 -0.179328,-0.05558 -0.403683,-0.0793 -0.63136,-0.07638 z m 17.37683,1.199272 c -0.309142,-0.0084 -0.658827,0.03476 -1.040068,0.130081 -0.762486,0.19086 -1.651426,0.591602 -2.644819,0.9938 -0.993395,0.40222 -2.090368,0.80596 -3.313816,1.146552 -1.223447,0.34059 -2.574177,0.617868 -3.777383,0.677602 -1.202815,0.05974 -2.289392,-0.103022 -3.361143,-0.263498 0.657627,0.591518 1.338989,1.205266 1.684339,1.67465 0.345551,0.469656 0.408726,0.871585 0.215109,1.561717 -0.193607,0.690133 -0.645188,1.698088 -1.094926,2.700734 1.676541,-0.81849 3.353011,-1.636687 4.879842,-2.32428 1.52683,-0.687594 2.906708,-1.245873 4.285052,-1.767167 1.378342,-0.521294 2.757049,-1.006976 3.058908,-0.667924 0.301859,0.33905 -0.47312,1.503335 0.0011,1.697253 0.474192,0.193982 2.19693,-0.581819 3.83547,-1.116433 1.638539,-0.534636 3.192784,-0.828002 4.873387,-0.841114 1.680582,-0.01243 3.513666,0.257005 5.333719,0.525956 -0.746558,-0.57162 -1.493074,-1.143012 -2.422165,-1.464914 -0.929092,-0.32188 -2.040614,-0.393582 -3.15249,-0.465722 0.73355,-0.225242 1.466766,-0.450986 2.4297,-0.589394 0.962956,-0.13841 2.154776,-0.190444 3.347158,-0.241998 -1.465184,-0.19856 -2.929432,-0.396496 -4.40981,-0.334514 -1.480378,0.06202 -2.986772,0.387046 -4.303348,0.817428 -1.316555,0.4304 -2.480153,0.977816 -3.002965,1.122886 -0.522814,0.145069 -0.0062,-1.042464 0.0408,-1.585362 0.04766,-0.542918 -0.223932,-0.998504 -0.663616,-1.213236 -0.219852,-0.1074 -0.48893,-0.165468 -0.798072,-0.173168 z M 132.7743,107.9641 c -8.32695,-0.008 -17.77043,0.38184 -26.59872,0.90887 20.31384,6.234 40.10078,12.42776 58.2042,18.48034 0.71951,-4.55475 0.5649,-8.32277 -1.1971,-11.54187 -1.84858,-3.37722 -5.4548,-6.16124 -16.04422,-7.25683 -3.97103,-0.41085 -8.92495,-0.58486 -14.36416,-0.59051 z m -48.606954,0.004 c -0.387567,-0.0215 -0.772741,10e-4 -1.105673,0.0765 -0.665844,0.15048 -1.089439,0.50376 -1.306814,0.77654 -0.12842,0.16089 -0.129879,0.71597 -0.03226,1.97046 -6.318633,0.58691 -12.483932,1.19714 -18.526619,1.82523 3.377815,1.68891 6.755153,3.37798 9.014307,6.36734 2.259155,2.9893 3.400857,7.2785 3.172929,12.07107 -0.22795,4.79257 -1.826048,10.08893 -4.062413,14.53948 -2.236384,4.45053 -5.111451,8.05844 -7.987142,11.6645 15.017533,-3.28651 30.035246,-6.57372 43.021519,-8.87878 8.19234,-1.45416 15.57129,-2.51784 22.06093,-3.231 -9.08878,-11.11753 -23.62814,-23.33874 -38.476195,-35.10537 -1.041718,0.087 -2.002299,0.18588 -3.02771,0.27535 -0.09824,-0.91839 -0.162762,-1.1904 -0.281814,-1.34338 -0.226492,-0.29102 -0.679538,-0.62363 -1.350898,-0.82174 -0.3357,-0.099 -0.724558,-0.16443 -1.112146,-0.18607 z m 19.734484,6.34798 c 16.02356,13.09874 34.10219,27.8778 40.35841,39.89595 6.25624,12.01817 4.39276,28.15864 2.73302,42.53751 11.83096,-9.1515 24.20434,-18.72197 39.90885,-23.59896 15.7045,-4.87698 37.61413,-5.98969 58.62907,-7.05677 -17.98147,-8.36502 -36.00717,-16.75026 -59.55404,-25.35862 -23.54692,-8.6083 -52.8471,-17.52509 -82.07531,-26.41911 z m -54.494587,4.70345 c -0.227683,0.003 -0.458933,0.0323 -0.650716,0.0828 -0.383568,0.10213 -0.596199,0.2871 -0.705572,0.47218 -0.08692,0.14715 -0.04162,0.84627 0.16349,3.00407 -6.643928,1.3142 -15.501702,3.19449 -24.455122,5.10031 1.780191,0.82163 3.55964,1.6432 5.088496,2.82982 1.528861,1.18662 2.808657,2.74099 3.607451,4.81746 0.798785,2.0765 1.117512,4.67806 0.889488,7.6677 -0.228024,2.98968 -1.004285,6.36708 -2.396357,10.45236 -1.392077,4.08526 -3.400594,8.87868 -5.40902,13.67149 l 29.029507,-8.21732 c 3.423454,-3.37779 6.846325,-6.75558 9.333749,-10.38458 2.487416,-3.62897 4.040891,-7.50949 4.793797,-11.48057 0.752885,-3.97113 0.70595,-8.03316 -0.275362,-10.81696 -0.981313,-2.78384 -2.897567,-4.29012 -4.814215,-5.04333 -0.958334,-0.3766 -1.916462,-0.56365 -3.465466,-0.5066 -1.549008,0.057 -3.688892,0.35897 -7.009462,0.9637 -0.640851,0.11672 -1.511498,0.2921 -2.236099,0.43024 -0.11949,-1.51437 -0.177934,-2.20296 -0.238775,-2.37378 -0.08677,-0.24362 -0.259826,-0.48168 -0.61845,-0.59264 -0.179308,-0.0554 -0.403673,-0.079 -0.631356,-0.0763 z m 85.953797,33.09084 c -4.60767,0.37052 -9.57809,0.90143 -14.90734,1.67359 -8.80545,1.27584 -18.51048,3.18242 -28.579924,5.34556 -0.110237,-1.08209 -0.18774,-1.51535 -0.314052,-1.67788 -0.226511,-0.29101 -0.677398,-0.62363 -1.348771,-0.82173 -0.671387,-0.19794 -1.554127,-0.26017 -2.219962,-0.10969 -0.665849,0.15048 -1.089443,0.50485 -1.306819,0.77763 -0.149232,0.18732 -0.109264,1.03414 0.06348,2.95674 -6.814199,1.50277 -13.720146,3.07038 -20.675587,4.67224 2.830069,1.04986 5.660449,2.10025 8.010807,4.45069 2.350361,2.35045 4.219971,6.00318 4.882005,10.36201 0.662034,4.35881 0.115721,9.42339 -1.321884,14.90087 -1.437647,5.47745 -3.766319,11.36653 -6.002725,15.52041 -2.236406,4.15386 -4.382252,6.57358 -6.527599,8.9928 8.829963,-3.36814 17.695683,-6.72564 26.960112,-9.87261 0.227741,2.21811 0.512126,4.97188 0.792701,7.68168 -5.311666,1.64473 -10.212897,3.13625 -14.226501,4.2689 -7.498319,2.11606 -13.54007,3.59663 -18.89769,4.59697 -0.280814,-3.63005 -0.57993,-7.48659 -0.724927,-9.45206 -0.04316,-0.58486 -0.0537,-0.71724 -0.08068,-1.09277 l 3.644022,-0.51196 c 2.419252,-4.70153 4.839606,-9.40421 6.8137,-13.71777 1.974115,-4.31355 3.502011,-8.23897 4.106517,-12.18722 0.604506,-3.94825 0.285914,-7.9201 -1.060508,-10.81804 -1.346444,-2.89801 -3.720905,-4.72324 -6.299589,-5.93282 -2.578682,-1.20962 -5.362245,-1.80284 -7.826895,-1.75747 -1.304049,0.0242 -2.555606,0.24406 -4.242027,0.6733 -0.140282,-1.78307 -0.200058,-2.51313 -0.264588,-2.69429 -0.08677,-0.24347 -0.259811,-0.4806 -0.618452,-0.59156 -0.179307,-0.0555 -0.403666,-0.0785 -0.631355,-0.0754 -0.227676,0.003 -0.458932,0.0301 -0.650716,0.0819 -0.383577,0.102 -0.596187,0.28841 -0.705572,0.47326 -0.09458,0.15984 -0.05547,0.78148 0.211883,3.53429 -0.969339,0.28013 -2.036265,0.59493 -3.325644,0.97232 -5.614473,1.64327 -14.698264,4.24414 -23.781824,6.84596 3.469106,1.55196 6.939249,3.10529 9.289661,5.5241 2.350404,2.41884 3.581574,5.7056 3.878484,9.19716 0.296927,3.4916 -0.340872,7.18844 -1.824158,11.41069 -1.483293,4.22226 -3.81245,8.97164 -6.140402,13.71883 l 26.741782,-3.76559 c 0.02345,0.23101 0.01874,0.23626 0.04842,0.52058 0.216263,2.08342 0.655601,6.16609 1.074489,10.06514 -4.765749,0.79143 -9.043711,1.19129 -13.4209,1.30788 -9.834552,0.26193 -14.162909,-1.05303 -16.939076,0.0281 -2.776258,1.08192 -3.043925,4.85144 -2.80615,7.6322 0.237778,2.78076 0.982735,4.57056 2.245779,5.64671 1.263049,1.07613 3.045021,1.43796 3.935495,1.61873 0.890477,0.18066 0.888506,0.18087 1.645613,1.04866 0.757117,0.86791 2.497471,2.86368 3.916136,4.99601 0.76825,1.15468 1.474733,2.38205 2.169411,3.47407 -3.97749,0.1301 -7.942646,0.66004 -12.018364,1.72521 -6.809748,1.77972 -13.92754,5.02832 -15.631186,5.88011 -1.7036499,0.85181 1.878369,-0.64011 6.820155,-1.75101 4.941793,-1.11088 10.977514,-1.73056 16.782044,-1.57571 5.804535,0.15486 11.375871,1.08393 17.683367,2.43832 6.307499,1.35435 13.349092,3.13455 19.850633,3.71499 6.501541,0.58045 12.457602,-0.0386 16.789565,-1.14977 4.331969,-1.11107 7.0347,-2.7136 9.736012,-4.31517 3.707894,2.58205 7.415664,5.16379 13.862954,5.85216 6.4473,0.68834 15.63302,-0.51574 22.55782,-1.90054 6.92482,-1.3848 11.58937,-2.94972 15.40747,-3.96667 3.81813,-1.01697 6.79078,-1.48658 9.19717,-1.32725 2.40639,0.15922 4.24679,0.94686 5.54347,2.79 1.2967,1.84318 2.04954,4.74291 2.8029,7.64189 2.67587,-2.73907 5.35294,-5.47881 9.0681,-7.35148 3.71518,-1.87267 9.09119,-3.01067 13.48543,-3.10408 4.39422,-0.0935 8.58081,0.76671 12.42064,1.836 3.83982,1.06929 7.41971,2.3652 10.72983,2.81581 3.31014,0.45059 6.52848,0.0319 8.55827,-0.28071 2.02979,-0.31264 2.95895,-0.53081 3.88924,-0.74966 -3.84058,-0.0862 -7.68032,-0.17254 -10.98042,-0.57437 -1.56134,-0.19003 -3.01135,-0.45914 -4.64429,-0.92605 -6.56467,-3.85645 -13.0756,-7.75424 -18.46748,-12.52282 -1.47174,-1.30161 -2.85696,-2.66984 -4.18394,-4.08391 4.3841,-5.22426 8.70128,-11.34597 11.10306,-16.47121 3.87464,-8.26811 2.76266,-15.57673 -1.85535,-19.32146 -0.24741,-0.20084 -0.51018,-0.39312 -0.77763,-0.58294 23.82781,-11.28719 52.14875,-23.06194 61.87403,-27.97222 9.81224,-4.95419 10.49993,-6.19844 10.18992,-6.85889 -0.0777,-0.16526 -0.20843,-0.30662 -0.61846,-0.33449 v 0.001 c -1.23009,-0.085 -4.95506,0.85256 -17.1671,5.24016 -14.80635,5.31965 -42.42032,14.20278 -70.8335,25.05636 -2.04634,-0.1946 -4.19256,-0.33456 -6.50071,-0.39151 -11.09178,-0.27381 -16.43674,-0.25841 -33.31778,3.74081 -11.27089,2.67024 -27.51587,7.79344 -41.805055,12.24532 -0.214947,-2.80165 -0.45309,-5.89746 -0.601233,-7.86777 11.102788,-3.60226 22.958188,-6.85732 32.935938,-8.89061 4.17938,-0.85168 8.03085,-1.48697 11.71075,-2.00593 1.4211,-14.91256 1.63528,-30.24577 -5.238,-42.70533 -0.34346,-0.62259 -0.72218,-1.25359 -1.11644,-1.88761 z m 29.26183,53.01677 c 5.77625,-0.0782 11.58891,0.44101 17.12406,1.93925 3.58299,0.96979 8.31114,3.35261 9.99953,4.89918 1.68839,1.54663 2.80824,3.36673 2.7115,4.93254 -2.93404,-2.64021 -7.3159,-5.582 -11.61826,-6.93631 -7.57175,-2.38349 -15.83768,-2.30873 -23.75278,-1.70585 -11.20835,0.85367 -19.80774,4.23253 -32.88218,7.48163 -13.07441,3.24909 -29.068202,7.85302 -43.805601,11.24289 -14.737425,3.38985 -28.833289,5.67283 -37.902926,5.69404 -9.069639,0.0208 -14.533773,-2.21003 -11.905431,-2.47703 2.62834,-0.26724 13.419721,1.39117 30.134105,-1.37028 16.714392,-2.76144 41.383043,-10.32161 58.626913,-14.86861 17.24386,-4.54697 24.72749,-7.59781 37.51893,-8.56794 1.90598,-0.14444 3.8267,-0.23741 5.75214,-0.26351 z m 20.95523,38.07609 c 0.92566,0.93529 1.8852,1.84534 2.88681,2.72331 2.63494,2.30971 5.56179,4.39843 8.63462,6.37704 -4.38897,-1.97551 -9.23201,-3.92586 -12.64971,-4.10113 -1.32531,-0.0681 -2.57489,0.0601 -3.94194,0.28825 1.58051,-1.49228 3.30755,-3.293 5.07022,-5.28747 z m 4.08928,17.81134 c -4.06031,0.0188 -7.76123,1.50931 -11.56662,3.67845 -4.68355,2.6697 -9.62845,6.40789 -14.57175,10.14472 -0.6519,-4.09969 -1.37026,-8.62014 -3.36868,-10.61261 -1.99841,-1.99247 -7.23626,-2.46084 -11.78712,-1.08955 -4.55086,1.37132 -9.32811,4.50262 -15.04069,7.24608 -5.71258,2.74349 -13.216,5.40195 -18.8353,4.21301 -5.61929,-1.18896 -11.06113,-5.62129 -16.503475,-10.05332 -4.627972,2.85047 -9.254891,5.69998 -14.667471,7.4483 -5.412601,1.74834 -11.548262,2.38818 -18.458851,0.72599 -6.910602,-1.66217 -14.326471,-5.56245 -21.394072,-7.46658 -7.067602,-1.90409 -13.717562,-1.7748 -20.398096,-0.74212 -6.680532,1.03268 -13.3963054,2.97011 -20.1098427,4.90671 7.8432227,-1.64611 15.6876207,-3.29229 22.8697447,-3.76016 7.182122,-0.46788 13.701255,0.24232 19.026745,2.42109 5.325492,2.17877 9.455575,5.82536 15.185904,8.03663 5.730331,2.21126 13.054336,2.98494 18.849281,1.78758 5.794925,-1.19737 10.051905,-4.36343 14.311478,-7.53108 2.898562,4.2628 6.010787,8.8408 11.384855,10.48136 5.37406,1.64056 15.98154,0.76267 23.02248,-1.18958 7.04091,-1.95222 11.88691,-5.14977 16.62393,-6.77282 4.73702,-1.62304 11.09702,-1.86415 13.14986,0.21188 2.05285,2.07603 2.53939,6.36745 3.02555,10.65778 8.25434,-6.19453 17.72117,-13.29938 23.89262,-14.64706 6.17144,-1.34765 11.47185,1.24054 18.27923,3.15678 6.80739,1.91626 15.11425,3.15874 21.97487,2.90187 6.8606,-0.25685 12.26224,-2.01243 17.66723,-3.76876 -5.19558,0.24172 -10.39034,0.48363 -15.50536,0.21727 -5.115,-0.26635 -10.15063,-1.04057 -15.9603,-3.26757 -5.80969,-2.22702 -12.99093,-6.24027 -18.22222,-7.10303 -0.98088,-0.16172 -1.93693,-0.23578 -2.87393,-0.23126 z"
       id="path7435"
       inkscape:connector-curvature="0" />
  </g>
</svg>
