<?xml version="1.0" encoding="UTF-8" standalone="no"?>
<svg
   xmlns:dc="http://purl.org/dc/elements/1.1/"
   xmlns:cc="http://creativecommons.org/ns#"
   xmlns:rdf="http://www.w3.org/1999/02/22-rdf-syntax-ns#"
   xmlns:svg="http://www.w3.org/2000/svg"
   xmlns="http://www.w3.org/2000/svg"
   xmlns:sodipodi="http://sodipodi.sourceforge.net/DTD/sodipodi-0.dtd"
   xmlns:inkscape="http://www.inkscape.org/namespaces/inkscape"
   viewBox="0 0 1109 901"
   version="1.1"
   id="svg16"
   sodipodi:docname="twitter.svg"
   inkscape:version="0.92.1 r15371">
  <metadata
     id="metadata22">
    <rdf:RDF>
      <cc:Work
         rdf:about="">
        <dc:format>image/svg+xml</dc:format>
        <dc:type
           rdf:resource="http://purl.org/dc/dcmitype/StillImage" />
        <dc:title></dc:title>
      </cc:Work>
    </rdf:RDF>
  </metadata>
  <defs
     id="defs20" />
  <sodipodi:namedview
     pagecolor="#ff6e6e"
     bordercolor="#666666"
     borderopacity="1"
     objecttolerance="10"
     gridtolerance="10"
     guidetolerance="10"
     inkscape:pageopacity="0"
     inkscape:pageshadow="2"
     inkscape:window-width="1680"
     inkscape:window-height="997"
     id="namedview18"
     showgrid="false"
     inkscape:zoom="0.26193119"
     inkscape:cx="554.5"
     inkscape:cy="450.5"
     inkscape:window-x="-8"
     inkscape:window-y="16"
     inkscape:window-maximized="1"
     inkscape:current-layer="svg16" />
  <path
     style="fill:#ffffff;fill-rule:evenodd;stroke:#5da8dc;stroke-width:0.5;fill-opacity:1"
     inkscape:connector-curvature="0"
     id="path2"
     d="M 741,0.2 V 0 h 52 l 19,3.8 q 19,3.7 34.5,9.7 15.5,6 30,14 14.5,8 26.3,16.3 11.7,8.2 21,17.4 9.2,9.3 28.7,4.8 19.5,-4.5 42,-12.5 22.5,-8 44.5,-18 22,-10 26.8,-12.7 4.7,-2.8 5,-3 l 0.2,-0.3 1,-0.5 1,-0.5 1,-0.5 1,-0.5 0.2,-0.3 0.3,-0.2 0.3,-0.2 0.2,-0.3 1,-0.3 1,-0.2 -0.2,1.5 -0.3,1.5 -0.5,1.5 -0.5,1.5 -0.5,1 -0.5,1 -0.5,1.5 q -0.5,1.5 -1,4 -0.5,2.5 -9.5,20 -9,17.5 -22.5,35.5 -13.5,18 -24.2,27.2 -10.8,9.3 -14.3,13 -3.5,3.8 -8.5,7 l -5,3.3 -1,0.5 -1,0.5 -0.2,0.3 -0.3,0.2 -0.3,0.2 -0.2,0.3 -1,0.5 -1,0.5 -0.2,0.3 -0.3,0.2 -0.3,0.2 -0.2,0.3 -0.2,0.3 -0.3,0.2 -0.3,0.2 -0.2,0.3 h 5 l 28,-6 q 28,-6 53.5,-14.5 25.5,-8.5 27,-9 1.5,-0.5 3,-1 l 1.5,-0.5 1,-0.5 1,-0.5 1,-0.5 1,-0.5 2,-0.3 2,-0.2 v 2 l -0.5,0.2 -0.5,0.3 -0.2,0.3 -0.3,0.2 -0.3,0.2 -0.2,0.3 -0.2,0.3 -0.3,0.2 -0.3,0.2 -0.2,0.3 -0.2,0.3 -0.3,0.2 -0.5,1 -0.5,1 -0.3,0.2 q -0.2,0.3 -12.7,17 -12.5,16.8 -13.5,17 -1,0.3 -2.8,3 -1.7,2.8 -21.2,22.3 -19.5,19.5 -38.2,34.7 -18.8,15.3 -19,37.6 -0.3,22.2 -2.3,50.2 -2,28 -7.5,60.5 -5.5,32.5 -17,73.5 -11.5,41 -28,80 -16.5,39 -34.5,70 -18,31 -33,52.5 -15,21.5 -30.5,40.5 -15.5,19 -39.2,42.8 -23.8,23.7 -26,26 -2.3,2.2 -19.6,16.4 -17.2,14.3 -37,28.6 Q 702.5,801 686,810.5 669.5,820 646.2,832.2 623,844.5 596,855 q -27,10.5 -57,19.5 -30,9 -58,14 -28,5 -63.5,8.5 l -35.5,3.5 v 0.5 h -65 v -0.5 l -8.5,-0.5 q -8.5,-0.5 -14,-1 -5.5,-0.5 -41.5,-5.5 -36,-5 -56.5,-10 -20.5,-5 -61,-19 Q 95,850.5 66.2,836.2 37.5,822 30.2,818.2 23,814.5 14,809 L 5,803.5 4.8,803.2 4.5,803 4.2,802.8 4,802.5 3,802 2,801.5 1.8,801.2 1.5,801 1.2,800.8 1,800.5 0.8,800.2 0.5,800 H 0 v -2 l 1,0.2 1,0.3 4.5,0.5 q 4.5,0.5 24.5,1.5 20,1 42.5,0 22.5,-1 46,-4.5 23.5,-3.5 55.5,-12 32,-8.5 58.8,-20.2 26.7,-11.8 38,-17.6 Q 283,740.5 306,725 l 23,-15.5 0.2,-0.3 0.3,-0.2 0.3,-0.2 0.2,-0.3 0.2,-0.3 0.3,-0.2 0.3,-0.2 0.2,-0.3 1,-0.3 1,-0.2 0.2,-1 0.3,-1 0.3,-0.2 0.2,-0.3 -8,-0.5 q -8,-0.5 -15.5,-1 -7.5,-0.5 -23.5,-4.5 -16,-4 -34.5,-12 -18.5,-8 -36,-19 -17.5,-11 -25.3,-18.3 -7.7,-7.2 -20,-20.4 -12.2,-13.3 -21.2,-27.3 -9,-14 -17.2,-32.3 l -8.3,-18.2 -0.5,-1.5 -0.5,-1.5 -0.3,-1 -0.2,-1 1.5,0.2 1.5,0.3 11,1.5 q 11,1.5 34.5,1 23.5,-0.5 32.5,-2 9,-1.5 11,-2 l 2,-0.5 2.5,-0.5 2.5,-0.5 0.2,-0.3 0.3,-0.2 0.3,-0.2 0.2,-0.3 -2,-0.5 -2,-0.5 -2,-0.5 -2,-0.5 -2,-0.5 q -2,-0.5 -7,-2 -5,-1.5 -27,-11 -22,-9.5 -35,-18.5 -13,-9 -24.8,-19.7 Q 107.5,478 93.5,461 79.5,444 68.5,421.5 57.5,399 52,378.5 46.5,358 44.8,337 l -1.8,-21 1,0.2 1,0.3 1,0.5 1,0.5 1,0.5 1,0.5 15.5,7 q 15.5,7 38.5,12 23,5 27.5,5.5 l 4.5,0.5 h 9 l -0.2,-0.3 -0.3,-0.2 -0.3,-0.2 -0.2,-0.3 -0.2,-0.3 -0.3,-0.2 -0.3,-0.2 -0.2,-0.3 -1,-0.5 -1,-0.5 -0.2,-0.3 -0.3,-0.2 -0.3,-0.2 -0.2,-0.3 -1,-0.5 -1,-0.5 -0.2,-0.3 q -0.3,-0.2 -8.6,-6.4 -8.2,-6.3 -17.2,-16.3 -9,-10 -18,-21 Q 84,283.5 77,271 70,258.5 62.2,239.2 54.5,220 50.5,200.5 46.5,181 46,162 45.5,143 47,129.5 48.5,116 53,99 57.5,82 66,63 l 8.5,-19 0.5,-1.5 0.5,-1.5 0.3,-0.2 0.2,-0.3 0.2,-0.3 0.3,-0.2 0.3,0.2 0.2,0.3 0.2,0.3 0.3,0.2 0.3,0.2 0.2,0.3 0.2,0.3 0.3,0.2 0.5,1 0.5,1 0.3,0.2 0.2,0.3 13.5,15 q 13.5,15 32,33.5 18.5,18.5 20.5,19.2 2,0.8 5,4.6 3,3.7 20,17.7 17,14 44.5,32.5 27.5,18.5 61,36.5 33.5,18 72,32.5 38.5,14.5 54,19 15.5,4.5 53,11.5 37.5,7 56.5,9 19,2 26,2.3 l 7,0.2 -0.2,-1.5 -0.3,-1.5 -2,-12.5 q -2,-12.5 -2,-35 0,-22.5 3.5,-41.5 3.5,-19 10.5,-38.5 7,-19.5 13.7,-31.3 6.8,-11.7 17.8,-26.7 11,-15 28.5,-31 17.5,-16 40,-28.5 22.5,-12.5 41.5,-19 19,-6.5 32,-8.5 13,-2 13,-2.3 z" />
</svg>
